{
  "accessors": [
    {
      "bufferView": 2,
      "componentType": 5126,
      "count": 1195,
      "max": [
        58.863109588623047,
        78.403999328613281,
        3.5386309623718262
      ],
      "min": [
        -58.863109588623047,
        -66.250907897949219,
        -22.016668319702148
      ],
      "type": "VEC3"
    },
    {
      "bufferView": 2,
      "byteOffset": 14340,
      "componentType": 5126,
      "count": 1195,
      "max": [
        0.93223714828491211,
        0.91325223445892334,
        -0.1125369668006897
      ],
      "min": [
        -0.93223690986633301,
        -0.91867947578430176,
        -0.99999600648880005
      ],
      "type": "VEC3"
    },
    {
      "bufferView": 3,
      "componentType": 5126,
      "count": 1195,
      "max": [
        0.87042891979217529,
        0.98300576210021973,
        0.8785589337348938,
        1
      ],
      "min": [
        -0.87066841125488281,
        -0.14829903841018677,
        -0.99150639772415161,
        -1
      ],
      "type": "VEC4"
    },
    {
      "bufferView": 1,
      "componentType": 5126,
      "count": 1195,
      "max": [
        0.49177500605583191,
        0.44932401180267334
      ],
      "min": [
        0.015822999179363251,
        0.0067349998280405998
      ],
      "type": "VEC2"
    },
    {
      "bufferView": 0,
      "componentType": 5125,
      "count": 1914,
      "max": [
        1194
      ],
      "min": [
        0
      ],
      "type": "SCALAR"
    },
    {
      "bufferView": 2,
      "byteOffset": 28680,
      "componentType": 5126,
      "count": 1598,
      "max": [
        60.998443603515625,
        83.666328430175781,
        25.595294952392578
      ],
      "min": [
        -60.998443603515625,
        -64.310356140136719,
        -6.0917878150939941
      ],
      "type": "VEC3"
    },
    {
      "bufferView": 2,
      "byteOffset": 47856,
      "componentType": 5126,
      "count": 1598,
      "max": [
        0.99119949340820312,
        0.99969577789306641,
        0.99999701976776123
      ],
      "min": [
        -0.99119937419891357,
        -0.98670190572738647,
        -0.88383609056472778
      ],
      "type": "VEC3"
    },
    {
      "bufferView": 3,
      "byteOffset": 19120,
      "componentType": 5126,
      "count": 1598,
      "max": [
        0.9087483286857605,
        0.76656186580657959,
        0.99130117893218994,
        1
      ],
      "min": [
        -0.97748339176177979,
        -0.9637143611907959,
        -0.99985587596893311,
        -1
      ],
      "type": "VEC4"
    },
    {
      "bufferView": 1,
      "byteOffset": 9560,
      "componentType": 5126,
      "count": 1598,
      "max": [
        0.99495697021484375,
        0.41763898730278015
      ],
      "min": [
        0.58225798606872559,
        0.01119299978017807
      ],
      "type": "VEC2"
    },
    {
      "bufferView": 0,
      "byteOffset": 7656,
      "componentType": 5125,
      "count": 2904,
      "max": [
        1597
      ],
      "min": [
        0
      ],
      "type": "SCALAR"
    },
    {
      "bufferView": 2,
      "byteOffset": 67032,
      "componentType": 5126,
      "count": 5546,
      "max": [
        109.31890869140625,
        115.43844604492188,
        23.278295516967773
      ],
      "min": [
        -109.31890869140625,
        -110.87506866455078,
        -22.539497375488281
      ],
      "type": "VEC3"
    },
    {
      "bufferView": 2,
      "byteOffset": 133584,
      "componentType": 5126,
      "count": 5546,
      "max": [
        0.99881249666213989,
        0.98962044715881348,
        0.99953335523605347
      ],
      "min": [
        -0.99881249666213989,
        -0.99813789129257202,
        -0.99982565641403198
      ],
      "type": "VEC3"
    },
    {
      "bufferView": 3,
      "byteOffset": 44688,
      "componentType": 5126,
      "count": 5546,
      "max": [
        0.99987757205963135,
        0.99911403656005859,
        0.98846137523651123,
        1
      ],
      "min": [
        -0.99999523162841797,
        -0.99997502565383911,
        -0.99973827600479126,
        -1
      ],
      "type": "VEC4"
    },
    {
      "bufferView": 1,
      "byteOffset": 22344,
      "componentType": 5126,
      "count": 5546,
      "max": [
        0.94612497091293335,
        0.98691201210021973
      ],
      "min": [
        0.013589999638497829,
        0.33205598592758179
      ],
      "type": "VEC2"
    },
    {
      "bufferView": 0,
      "byteOffset": 19272,
      "componentType": 5125,
      "count": 9552,
      "max": [
        5545
      ],
      "min": [
        0
      ],
      "type": "SCALAR"
    },
    {
      "bufferView": 2,
      "byteOffset": 200136,
      "componentType": 5126,
      "count": 878,
      "max": [
        12.850000381469727,
        -93,
        21
      ],
      "min": [
        -12.850001335144043,
        -99,
        15
      ],
      "type": "VEC3"
    },
    {
      "bufferView": 2,
      "byteOffset": 210672,
      "componentType": 5126,
      "count": 878,
      "max": [
        1,
        1,
        1
      ],
      "min": [
        -1,
        -1,
        -1
      ],
      "type": "VEC3"
    },
    {
      "bufferView": 3,
      "byteOffset": 133424,
      "componentType": 5126,
      "count": 878,
      "max": [
        1,
        1,
        0.078691005706787109,
        1
      ],
      "min": [
        -1,
        -1,
        -0.078692041337490082,
        1
      ],
      "type": "VEC4"
    },
    {
      "bufferView": 0,
      "byteOffset": 57480,
      "componentType": 5125,
      "count": 4560,
      "max": [
        877
      ],
      "min": [
        0
      ],
      "type": "SCALAR"
    }
  ],
  "asset": {
    "extras": {
      "author": "Matt LM (https://sketchfab.com/Matt_LeMoine)",
      "license": "CC-BY-NC-SA-4.0 (http://creativecommons.org/licenses/by-nc-sa/4.0/)",
      "source": "https://sketchfab.com/models/6e53ddefba2e45dda8e4f1c73fb89f67",
      "title": "Turtle"
    },
    "generator": "Sketchfab-3.23.2",
    "version": "2.0"
  },
  "bufferViews": [
    {
      "buffer": 0,
      "byteLength": 75720,
      "byteOffset": 0,
      "name": "floatBufferViews",
      "target": 34963
    },
    {
      "buffer": 0,
      "byteLength": 66712,
      "byteOffset": 75720,
      "byteStride": 8,
      "name": "floatBufferViews",
      "target": 34962
    },
    {
      "buffer": 0,
      "byteLength": 221208,
      "byteOffset": 142432,
      "byteStride": 12,
      "name": "floatBufferViews",
      "target": 34962
    },
    {
      "buffer": 0,
      "byteLength": 147472,
      "byteOffset": 363640,
      "byteStride": 16,
      "name": "floatBufferViews",
      "target": 34962
    }
  ],
  "buffers": [
    {
      "byteLength": 511112,
      "uri": "scene.bin"
    }
  ],
  "images": [
    {
      "uri": "textures/Turtle_Color_normal.png"
    },
    {
      "uri": "textures/Turtle_Color_metallicRoughness.png"
    },
    {
      "uri": "textures/Turtle_Color_baseColor.png"
    },
    {
      "uri": "textures/Shell_Top_normal.png"
    },
    {
      "uri": "textures/Shell_Top_metallicRoughness.png"
    },
    {
      "uri": "textures/Shell_Top_baseColor.png"
    },
    {
      "uri": "textures/Shell_Bottom_normal.png"
    },
    {
      "uri": "textures/Shell_Bottom_metallicRoughness.png"
    },
    {
      "uri": "textures/Shell_Bottom_baseColor.png"
    }
  ],
  "materials": [
    {
      "doubleSided": true,
      "emissiveFactor": [
        0,
        0,
        0
      ],
      "name": "Shell_Bottom",
      "normalTexture": {
        "index": 6,
        "scale": 0.75,
        "texCoord": 0
      },
      "pbrMetallicRoughness": {
        "baseColorFactor": [
          1,
          1,
          1,
          1
        ],
        "baseColorTexture": {
          "index": 8,
          "texCoord": 0
        },
        "metallicFactor": 0,
        "metallicRoughnessTexture": {
          "index": 7,
          "texCoord": 0
        },
        "roughnessFactor": 1
      }
    },
    {
      "doubleSided": true,
      "emissiveFactor": [
        0,
        0,
        0
      ],
      "name": "Shell_Top",
      "normalTexture": {
        "index": 3,
        "scale": 0.75020968840000002,
        "texCoord": 0
      },
      "pbrMetallicRoughness": {
        "baseColorFactor": [
          1,
          1,
          1,
          1
        ],
        "baseColorTexture": {
          "index": 5,
          "texCoord": 0
        },
        "metallicFactor": 0,
        "metallicRoughnessTexture": {
          "index": 4,
          "texCoord": 0
        },
        "roughnessFactor": 0.5
      }
    },
    {
      "doubleSided": true,
      "emissiveFactor": [
        0,
        0,
        0
      ],
      "name": "Turtle_Color",
      "normalTexture": {
        "index": 0,
        "scale": 0.75020968840000002,
        "texCoord": 0
      },
      "pbrMetallicRoughness": {
        "baseColorFactor": [
          1,
          1,
          1,
          1
        ],
        "baseColorTexture": {
          "index": 2,
          "texCoord": 0
        },
        "metallicFactor": 0,
        "metallicRoughnessTexture": {
          "index": 1,
          "texCoord": 0
        },
        "roughnessFactor": 0.5
      }
    },
    {
      "doubleSided": true,
      "emissiveFactor": [
        0,
        0,
        0
      ],
      "name": "lambert2SG",
      "pbrMetallicRoughness": {
        "baseColorFactor": [
          0,
          0,
          0,
          1
        ],
        "metallicFactor": 0,
        "roughnessFactor": 0.30010477700000004
      }
    }
  ],
  "meshes": [
    {
      "primitives": [
        {
          "attributes": {
            "NORMAL": 1,
            "POSITION": 0,
            "TANGENT": 2,
            "TEXCOORD_0": 3
          },
          "indices": 4,
          "material": 0,
          "mode": 4
        }
      ]
    },
    {
      "primitives": [
        {
          "attributes": {
            "NORMAL": 6,
            "POSITION": 5,
            "TANGENT": 7,
            "TEXCOORD_0": 8
          },
          "indices": 9,
          "material": 1,
          "mode": 4
        }
      ]
    },
    {
      "primitives": [
        {
          "attributes": {
            "NORMAL": 11,
            "POSITION": 10,
            "TANGENT": 12,
            "TEXCOORD_0": 13
          },
          "indices": 14,
          "material": 2,
          "mode": 4
        }
      ]
    },
    {
      "primitives": [
        {
          "attributes": {
            "NORMAL": 16,
            "POSITION": 15,
            "TANGENT": 17
          },
          "indices": 18,
          "material": 3,
          "mode": 4
        }
      ]
    }
  ],
  "nodes": [
    {
      "children": [
        1
      ],
      "name": "RootNode (gltf orientation matrix)",
      "rotation": [
        -0.70710678118654746,
        -0,
        -0,
        0.70710678118654757
      ]
    },
    {
      "children": [
        2
      ],
      "name": "RootNode (model correction matrix)"
    },
    {
      "children": [
        3,
        4,
        5,
        6
      ],
      "name": "Turtle.obj.cleaner.materialmerger.gles"
    },
    {
      "mesh": 0,
      "name": ""
    },
    {
      "mesh": 1,
      "name": ""
    },
    {
      "mesh": 2,
      "name": ""
    },
    {
      "mesh": 3,
      "name": ""
    }
  ],
  "samplers": [
    {
      "magFilter": 9729,
      "minFilter": 9987,
      "wrapS": 10497,
      "wrapT": 10497
    }
  ],
  "scene": 0,
  "scenes": [
    {
      "name": "OSG_Scene",
      "nodes": [
        0
      ]
    }
  ],
  "textures": [
    {
      "sampler": 0,
      "source": 0
    },
    {
      "sampler": 0,
      "source": 1
    },
    {
      "sampler": 0,
      "source": 2
    },
    {
      "sampler": 0,
      "source": 3
    },
    {
      "sampler": 0,
      "source": 4
    },
    {
      "sampler": 0,
      "source": 5
    },
    {
      "sampler": 0,
      "source": 6
    },
    {
      "sampler": 0,
      "source": 7
    },
    {
      "sampler": 0,
      "source": 8
    }
  ]
}

